<svg width="190" height="190" viewBox="0 0 190 190" fill="none" xmlns="http://www.w3.org/2000/svg">
<g clip-path="url(#clip0_19_76)">
<path d="M64 64H167C167 64 167 74 167 80C167 88.6996 159.5 95.5 151 95.5C142.5 95.5 95 95.5 95 95.5V190C95 190 85 190 79 190C73 190 64 182 64 174C64 166 64 64 64 64Z" fill="#FF6B6B"/>
<path d="M3.09761e-05 0H189.952C189.952 0 189.952 11.5969 189.952 25.9025C189.952 40.2081 178.355 51.8051 164.05 51.8051H4.58773e-05L3.09761e-05 0Z" fill="white"/>
<path d="M51.8051 0L51.8051 189.952C51.8051 189.952 40.2082 189.952 25.9025 189.952C11.597 189.952 6.25303e-07 178.355 0 164.049L3.09761e-05 0H51.8051Z" fill="white"/>
</g>
<defs>
<clipPath id="clip0_19_76">
<rect width="189.952" height="189.952" fill="white"/>
</clipPath>
</defs>
</svg>
