<?xml version="1.0" encoding="UTF-8"?>
<!DOCTYPE svg PUBLIC "-//W3C//DTD SVG 1.1//EN" "http://www.w3.org/Graphics/SVG/1.1/DTD/svg11.dtd">
<svg xmlns="http://www.w3.org/2000/svg" version="1.1" width="180px" height="180px" style="shape-rendering:geometricPrecision; text-rendering:geometricPrecision; image-rendering:optimizeQuality; fill-rule:evenodd; clip-rule:evenodd" xmlns:xlink="http://www.w3.org/1999/xlink">
<g><path style="opacity:0.989" fill="#fefefe" d="M 76.5,-0.5 C 85.1667,-0.5 93.8333,-0.5 102.5,-0.5C 145.167,8.16667 170.833,33.8333 179.5,76.5C 179.5,85.1667 179.5,93.8333 179.5,102.5C 170.833,145.167 145.167,170.833 102.5,179.5C 93.8333,179.5 85.1667,179.5 76.5,179.5C 33.8333,170.833 8.16667,145.167 -0.5,102.5C -0.5,93.8333 -0.5,85.1667 -0.5,76.5C 8.16667,33.8333 33.8333,8.16667 76.5,-0.5 Z"/></g>
<g><path style="opacity:1" fill="#6b6b6b" d="M 71.5,39.5 C 69.5583,44.0557 68.8917,49.0557 69.5,54.5C 68.5119,49.3595 68.1786,44.0262 68.5,38.5C 69.791,38.2627 70.791,38.596 71.5,39.5 Z"/></g>
<g><path style="opacity:1" fill="#070707" d="M 71.5,39.5 C 78.6605,40.7469 84.6605,44.0802 89.5,49.5C 95.0976,43.201 102.098,39.8677 110.5,39.5C 110.5,44.5 110.5,49.5 110.5,54.5C 104.43,55.3991 100.263,58.7324 98,64.5C 97.8333,72.6667 97.6667,80.8333 97.5,89C 97.3743,98.2377 97.8743,107.404 99,116.5C 101.38,121.272 105.213,123.939 110.5,124.5C 110.5,129.5 110.5,134.5 110.5,139.5C 102.098,139.132 95.0976,135.799 89.5,129.5C 83.9226,135.788 76.9226,139.122 68.5,139.5C 68.5,134.5 68.5,129.5 68.5,124.5C 74.5704,123.601 78.737,120.268 81,114.5C 82.1041,106.059 82.6041,97.5585 82.5,89C 82.6198,80.7604 82.1198,72.5938 81,64.5C 78.8535,59.1844 75.0201,55.851 69.5,54.5C 68.8917,49.0557 69.5583,44.0557 71.5,39.5 Z"/></g>
</svg>
