<?xml version="1.0" encoding="UTF-8"?>
<svg version="1.1" xmlns="http://www.w3.org/2000/svg" width="400" height="400">
<path d="M0 0 C132 0 264 0 400 0 C400 132 400 264 400 400 C268 400 136 400 0 400 C0 268 0 136 0 0 Z " fill="#000000" transform="translate(0,0)"/>
<path d="M0 0 C0 8.25 0 16.5 0 25 C-2.64 25.99 -5.28 26.98 -8 28 C-12.84050951 31.13562209 -16.77610641 35.16052142 -18.55825806 40.75131226 C-19.12677589 43.64535275 -19.15939871 46.40395206 -19.19287109 49.35400391 C-19.20893402 50.64279449 -19.22499695 51.93158508 -19.24154663 53.25942993 C-19.25303789 54.66513401 -19.26364579 56.07084555 -19.2734375 57.4765625 C-19.28142302 58.54456148 -19.28142302 58.54456148 -19.28956985 59.6341362 C-19.31626075 63.40630768 -19.33564447 67.17844662 -19.35009766 70.95068359 C-19.36340486 74.05645408 -19.39120208 77.16156253 -19.43212891 80.26708984 C-19.48173812 84.03247786 -19.50625301 87.79726842 -19.51332474 91.56296921 C-19.51999191 92.9893891 -19.53509426 94.41579806 -19.55921555 95.84202957 C-19.71363529 105.52866999 -18.97855241 113.52024349 -12.24423218 120.93252563 C-8.2178584 124.83019873 -5.88214496 125.31938716 0 127 C0 135.25 0 143.5 0 152 C-12.9512314 149.84146143 -21.58146345 146.99042125 -31 138 C-33.94163796 139.3881887 -36.52895726 141.0057878 -39.1875 142.875 C-47.21941232 148.24273225 -52.98090102 149.9980901 -63 151 C-63 143.08 -63 135.16 -63 127 C-59.7 125.35 -56.4 123.7 -53 122 C-46.88457791 116.01469327 -44.86244634 110.55241342 -44.59594727 102.18188477 C-44.56944048 99.43377652 -44.55893688 96.6892813 -44.56640625 93.94140625 C-44.56183841 92.46841696 -44.55653105 90.99542979 -44.55052185 89.52244568 C-44.54161514 86.44350497 -44.54398573 83.36482397 -44.55395508 80.28588867 C-44.56544122 76.35742382 -44.54522732 72.42985836 -44.51603794 68.50151157 C-44.49761391 65.46183156 -44.49798064 62.42236463 -44.50367546 59.38264275 C-44.50382792 57.93508582 -44.49784615 56.48751375 -44.48538399 55.04001045 C-44.41799684 45.93073697 -44.61720998 39.20009351 -50.67578125 32.01171875 C-51.21589844 31.57472656 -51.75601563 31.13773438 -52.3125 30.6875 C-53.11107422 30.01267578 -53.11107422 30.01267578 -53.92578125 29.32421875 C-56.74994522 27.52122141 -59.92028781 26.31987665 -63 25 C-63 17.08 -63 9.16 -63 1 C-51.6895811 2.13104189 -51.6895811 2.13104189 -45.75 5.25 C-44.61046875 5.83265625 -43.4709375 6.4153125 -42.296875 7.015625 C-38.83884845 9.09699643 -36.02446522 11.34213662 -33 14 C-29.88098538 12.99090703 -27.95874104 11.96286693 -25.5 9.75 C-18.65809632 3.76333428 -9.06205735 0 0 0 Z " fill="#FCFCFC" transform="translate(232,124)"/>
<path d="M0 0 C0 1.98 0 3.96 0 6 C-3.37503669 4.8141763 -5.64722731 3.72426311 -8 1 C-5.23735711 0.40267181 -2.83967231 0 0 0 Z " fill="#E7E7E7" transform="translate(215,265)"/>
</svg>
